<?xml version="1.0" standalone="no"?>
<!DOCTYPE svg PUBLIC "-//W3C//DTD SVG 20010904//EN"
 "http://www.w3.org/TR/2001/REC-SVG-20010904/DTD/svg10.dtd">
<svg version="1.0" xmlns="http://www.w3.org/2000/svg"
 width="900.000000pt" height="303.000000pt" viewBox="0 0 900.000000 303.000000"
 preserveAspectRatio="xMidYMid meet">
<metadata>
Created by potrace 1.10, written by Peter Selinger 2001-2011
</metadata>
<g transform="translate(0.000000,303.000000) scale(0.100000,-0.100000)"
fill="#000000" stroke="none">
<path d="M835 2633 c-85 -22 -125 -157 -69 -230 33 -43 101 -73 166 -73 61 0
108 -26 143 -78 21 -31 25 -49 25 -112 1 -93 26 -151 88 -197 38 -29 51 -33
105 -33 51 1 69 6 102 28 60 42 78 81 85 188 5 74 11 99 29 126 33 48 90 78
148 78 45 0 109 23 144 52 25 21 49 74 49 110 -1 42 -27 90 -65 120 -42 33
-128 33 -170 0 -47 -37 -65 -72 -65 -125 0 -61 -31 -129 -73 -160 -69 -52
-289 -54 -364 -4 -42 29 -73 92 -73 152 0 54 -27 109 -67 139 -26 19 -100 30
-138 19z"/>
<path d="M444 2245 c-66 -29 -108 -118 -83 -176 21 -51 67 -98 102 -104 18 -3
43 -7 57 -9 148 -23 181 -65 188 -232 8 -191 -29 -252 -165 -273 -94 -14 -115
-23 -146 -61 -38 -45 -53 -101 -37 -140 20 -48 48 -79 87 -95 44 -19 71 -19
114 -1 65 27 99 85 99 169 0 45 23 103 53 135 34 36 79 51 174 56 76 4 90 8
122 34 44 36 81 104 81 151 0 50 -37 118 -83 155 -35 28 -43 30 -114 29 -155
-3 -220 59 -238 229 -12 110 -115 175 -211 133z"/>
<path d="M2011 2240 c-50 -32 -69 -60 -76 -110 -13 -103 -28 -149 -58 -180
-48 -49 -82 -62 -173 -65 -112 -5 -151 -30 -195 -125 -33 -73 -2 -168 71 -216
33 -22 52 -27 122 -29 53 -1 95 -8 114 -18 71 -37 114 -112 114 -202 0 -87 81
-162 163 -152 76 10 137 79 137 153 0 38 -39 102 -77 125 -19 12 -64 25 -104
30 -134 17 -169 68 -169 249 0 182 35 233 173 251 144 20 207 104 162 216 -31
77 -137 115 -204 73z"/>
<path d="M2625 2236 c-60 -26 -60 -28 -60 -277 0 -281 -5 -270 136 -280 60 -4
94 -11 100 -20 9 -15 11 -162 2 -185 -4 -11 -28 -14 -108 -14 -72 0 -106 -4
-113 -13 -8 -9 -7 -31 5 -77 25 -103 10 -95 187 -95 l156 0 32 32 32 32 4 180
c3 99 1 204 -2 235 -10 74 -32 89 -151 96 l-90 5 0 100 0 100 113 3 c92 2 114
6 119 18 8 20 -15 144 -29 161 -15 18 -291 17 -333 -1z"/>
<path d="M3085 2238 c-3 -7 -4 -227 -3 -488 l3 -475 78 -3 c50 -2 84 1 93 9
11 9 14 51 14 203 l1 191 23 -50 c13 -27 32 -77 41 -110 31 -104 48 -146 57
-143 5 2 25 53 45 113 66 207 73 205 73 -24 0 -133 3 -171 14 -180 9 -8 45
-11 98 -9 l83 3 0 485 0 485 -97 3 c-92 3 -98 2 -112 -21 -9 -13 -20 -43 -25
-68 -8 -37 -55 -223 -68 -268 -8 -31 -33 29 -68 169 -9 36 -24 92 -34 125
l-17 60 -97 3 c-72 2 -99 -1 -102 -10z"/>
<path d="M3792 2238 c-19 -19 -17 -941 2 -957 9 -8 45 -11 98 -9 l83 3 0 485
0 485 -85 3 c-58 2 -89 -1 -98 -10z"/>
<path d="M4065 2238 c-3 -7 -4 -227 -3 -488 l3 -475 179 0 178 0 20 78 c25
102 22 105 -90 109 l-87 3 -5 390 -5 390 -93 3 c-68 2 -94 -1 -97 -10z"/>
<path d="M4384 2237 c-3 -8 5 -49 17 -93 12 -43 25 -95 29 -114 4 -19 13 -55
19 -80 7 -25 19 -70 26 -100 32 -131 47 -188 62 -235 11 -31 19 -103 22 -195
l6 -145 88 -3 c55 -2 94 1 102 8 10 8 15 48 18 138 2 71 10 153 19 187 21 79
46 180 58 230 4 22 18 76 31 120 12 44 25 99 30 123 5 23 13 50 18 60 5 9 11
37 13 62 l3 45 -92 3 c-107 3 -107 3 -122 -100 -5 -35 -14 -81 -20 -103 -5
-22 -13 -60 -16 -85 -3 -25 -14 -63 -24 -85 l-18 -40 -7 45 c-15 99 -39 229
-55 295 l-16 70 -93 3 c-71 2 -94 0 -98 -11z"/>
<path d="M5185 2238 c-3 -7 -4 -227 -3 -488 l3 -475 79 -3 c44 -2 83 1 89 7 5
5 9 86 8 193 -1 176 9 248 25 183 4 -16 13 -40 20 -54 8 -14 14 -32 14 -40 0
-37 60 -193 72 -189 10 4 50 120 83 246 4 13 12 21 18 19 8 -2 13 -56 15 -177
2 -124 6 -176 15 -182 20 -13 162 -9 175 4 19 19 17 941 -2 957 -9 8 -47 11
-107 9 l-94 -3 -12 -40 c-7 -22 -19 -69 -29 -105 -9 -36 -22 -87 -30 -115 -7
-27 -15 -63 -19 -78 -11 -53 -24 -26 -71 151 -8 28 -21 78 -30 110 -9 31 -18
63 -20 70 -2 8 -31 12 -99 12 -67 0 -97 -4 -100 -12z"/>
<path d="M6032 2238 c-7 -7 -12 -26 -12 -43 0 -17 -7 -57 -15 -88 -8 -32 -15
-69 -15 -83 0 -14 -6 -53 -14 -87 -8 -34 -22 -107 -31 -162 -9 -55 -22 -131
-30 -170 -45 -229 -58 -316 -47 -327 5 -5 47 -8 93 -6 l84 3 18 58 18 57 58 0
58 0 7 -41 c12 -78 16 -80 114 -77 83 3 87 4 90 27 2 14 -4 63 -13 110 -9 47
-22 120 -30 161 -7 41 -19 102 -25 135 -7 33 -16 85 -20 115 -4 30 -12 78 -18
105 -15 68 -32 168 -42 238 -5 32 -14 65 -21 73 -15 18 -189 20 -207 2z m118
-480 c6 -18 14 -73 17 -121 l6 -88 -34 3 -34 3 3 75 c5 155 18 193 42 128z"/>
<path d="M6475 2238 c-3 -7 -4 -227 -3 -488 l3 -475 83 -3 c53 -2 89 1 98 9
11 9 14 43 14 150 0 116 2 139 15 139 8 0 17 -12 20 -27 8 -36 34 -126 51
-178 8 -23 14 -48 14 -57 0 -29 36 -39 122 -36 94 3 102 12 75 77 -8 20 -25
67 -36 105 -12 38 -27 78 -32 89 -10 17 -6 24 20 44 59 46 61 59 61 315 0 204
-3 238 -19 273 -31 70 -30 70 -268 73 -171 3 -214 1 -218 -10z m295 -177 c5
-11 10 -79 10 -151 0 -72 -5 -140 -10 -151 -12 -22 -68 -27 -88 -7 -13 13 -18
281 -6 312 9 24 80 22 94 -3z"/>
<path d="M7062 2238 c-17 -17 -17 -939 0 -956 16 -16 170 -16 186 0 8 8 12 66
12 193 0 100 3 184 6 188 14 14 34 -8 39 -41 21 -140 56 -312 67 -334 12 -25
195 -27 205 -2 6 15 -14 115 -43 220 -8 28 -14 61 -14 74 0 13 -6 46 -14 74
-27 96 -35 153 -26 182 5 16 16 58 25 94 16 63 25 95 61 227 24 89 20 93 -76
93 -92 0 -120 -10 -120 -44 0 -13 -6 -46 -14 -72 -17 -56 -33 -128 -46 -198
-9 -49 -37 -103 -47 -92 -4 3 -5 89 -4 192 2 131 -1 190 -10 200 -15 18 -169
20 -187 2z"/>
<path d="M7645 2238 c-3 -7 -4 -227 -3 -488 l3 -475 180 0 180 0 12 25 c6 14
13 54 15 90 l3 65 -90 3 c-49 2 -92 7 -95 11 -3 5 -3 51 0 102 l5 94 73 3 73
3 -3 82 -3 82 -70 5 -70 5 -3 108 c-2 81 0 107 10 108 7 1 39 0 70 -1 31 -1
71 1 89 5 28 6 31 10 26 39 -3 17 -9 51 -13 76 -3 25 -11 51 -17 58 -7 9 -57
12 -189 12 -134 0 -180 -3 -183 -12z"/>
<path d="M8139 2228 c-11 -21 -20 -53 -36 -129 -4 -24 -1 -28 26 -34 17 -3 35
-4 41 0 5 3 19 1 30 -5 20 -10 20 -20 20 -389 0 -313 2 -381 14 -390 9 -8 45
-11 98 -9 l83 3 3 385 c1 211 6 388 11 393 4 4 24 8 42 9 67 0 72 5 67 62 -3
28 -12 68 -21 89 l-16 37 -175 0 c-172 0 -176 0 -187 -22z"/>
<path d="M838 2216 c-44 -19 -68 -58 -68 -111 0 -40 5 -52 34 -81 28 -28 41
-34 78 -34 52 1 83 16 109 56 38 57 14 135 -51 169 -34 18 -65 18 -102 1z"/>
<path d="M1647 2216 c-68 -30 -89 -126 -39 -185 67 -80 212 -28 212 77 0 40
-36 91 -75 108 -41 17 -60 17 -98 0z"/>
<path d="M1221 1795 c-40 -34 -56 -84 -41 -130 28 -84 122 -112 190 -55 33 27
35 32 35 90 0 59 -2 64 -35 91 -46 39 -105 40 -149 4z"/>
<path d="M1199 1472 c-73 -48 -99 -105 -97 -207 1 -60 -3 -79 -22 -109 -36
-59 -84 -86 -153 -86 -69 0 -125 -25 -161 -73 -21 -27 -26 -45 -26 -89 0 -50
4 -60 39 -99 37 -42 40 -43 99 -44 68 0 100 17 140 75 16 24 22 47 22 87 0 64
32 128 77 155 81 47 313 40 368 -12 38 -36 56 -78 64 -150 7 -70 20 -96 66
-132 41 -32 129 -32 170 0 77 61 85 167 16 232 -27 27 -99 50 -152 50 -57 0
-93 20 -135 75 -22 29 -27 50 -33 123 -9 106 -31 155 -87 194 -33 23 -50 27
-104 28 -46 0 -73 -5 -91 -18z"/>
<path d="M1661 1405 c-106 -36 -108 -190 -2 -225 33 -11 45 -10 78 2 45 18 83
69 83 111 0 34 -32 92 -58 102 -45 19 -70 21 -101 10z"/>
<path d="M804 1376 c-28 -28 -34 -42 -34 -76 0 -62 30 -105 83 -120 110 -30
195 81 136 177 -25 39 -53 53 -111 53 -32 0 -47 -7 -74 -34z"/>
<path d="M3510 1038 c-58 -31 -66 -133 -13 -175 55 -45 102 -43 152 8 25 24
31 39 31 72 -1 63 -34 99 -96 104 -29 2 -59 -2 -74 -9z m98 -50 c7 -7 12 -26
12 -43 0 -38 -16 -55 -52 -55 -18 0 -33 8 -43 24 -15 22 -15 27 0 55 12 23 22
31 43 31 16 0 33 -5 40 -12z"/>
<path d="M3886 1034 c-3 -9 -6 -53 -6 -99 0 -64 4 -86 16 -96 14 -11 18 -10
30 6 8 10 14 31 14 47 0 40 14 35 51 -17 24 -33 39 -45 54 -43 18 3 20 11 23
106 2 85 0 103 -13 108 -24 10 -45 -15 -45 -52 0 -36 -16 -46 -27 -16 -23 60
-82 95 -97 56z"/>
<path d="M4284 1037 c-3 -8 -3 -56 -2 -108 l3 -94 67 -3 c59 -3 68 0 78 18 16
30 4 40 -46 40 -54 0 -57 22 -4 30 18 3 35 10 37 16 5 16 -25 44 -47 44 -10 0
-22 5 -25 10 -4 6 9 10 33 10 40 0 69 20 57 40 -10 16 -144 13 -151 -3z"/>
<path d="M4887 1043 c-4 -3 -7 -50 -7 -104 0 -80 3 -98 16 -103 25 -9 44 12
44 50 0 50 16 50 45 0 26 -44 59 -66 75 -49 14 13 16 191 3 204 -22 22 -43 2
-43 -42 0 -51 -14 -48 -53 9 -27 40 -61 55 -80 35z"/>
<path d="M5287 1043 c-4 -3 -7 -50 -7 -104 0 -79 3 -98 16 -103 22 -9 34 1 34
29 0 44 10 55 51 55 31 0 39 4 39 18 0 26 -20 42 -52 42 -15 0 -28 5 -28 10 0
6 16 10 36 10 49 0 79 17 63 36 -12 14 -139 21 -152 7z"/>
<path d="M5632 1028 c2 -14 12 -24 28 -28 24 -6 25 -10 28 -83 2 -60 6 -79 19
-84 27 -10 43 25 43 94 0 62 1 64 31 75 19 7 29 16 27 27 -3 13 -19 17 -91 19
-87 3 -88 2 -85 -20z"/>
<path d="M6258 1044 c-5 -4 -8 -51 -8 -105 0 -106 2 -109 62 -109 40 0 95 34
114 73 19 36 7 92 -26 122 -22 20 -128 34 -142 19z m102 -64 c24 -24 25 -38 4
-68 -23 -33 -58 -26 -62 12 -8 69 19 95 58 56z"/>
<path d="M6642 1038 c-7 -7 -12 -44 -12 -98 0 -54 5 -91 12 -98 18 -18 133
-16 148 3 23 28 4 45 -51 45 -60 0 -65 23 -6 28 37 3 44 13 31 46 -4 9 -18 16
-34 16 -16 0 -32 5 -35 10 -4 6 11 10 37 10 51 0 73 12 65 34 -5 13 -21 16
-75 16 -39 0 -73 -5 -80 -12z"/>
<path d="M6997 1043 c-4 -3 -7 -50 -7 -104 0 -79 3 -98 16 -103 24 -9 34 2 34
39 0 43 14 51 40 25 23 -23 51 -20 83 8 16 14 17 13 17 -19 0 -43 13 -64 34
-56 14 6 16 22 14 109 -3 98 -4 103 -25 106 -18 3 -29 -8 -54 -48 -34 -56 -45
-55 -76 4 -9 17 -21 34 -27 38 -14 10 -41 10 -49 1z"/>
<path d="M7471 1024 c-61 -51 -48 -143 25 -178 43 -20 55 -20 98 0 40 20 56
49 56 105 0 89 -108 133 -179 73z m111 -41 c36 -33 13 -93 -37 -93 -49 0 -72
55 -38 92 20 22 51 23 75 1z"/>
</g>
</svg>
